<?xml version="1.0" encoding="UTF-8"?>
<svg id="Layer_1" xmlns="http://www.w3.org/2000/svg" width="1000" height="922.8111977" version="1.1" viewBox="0 0 1000 922.8111977">
  <!-- Generator: Adobe Illustrator 29.0.0, SVG Export Plug-In . SVG Version: 2.1.0 Build 186)  -->
  <rect x="387.4392925" y="155.1321961" width="72.1469086" height="72.2757741"/>
  <polygon points="536.1988609 155.0032274 464.7458274 155.0032274 464.7458274 227.4079702 536.1988609 227.4079702 536.1988609 155.1321961 536.1988609 155.0032274"/>
  <rect x="309.9994748" y="155.0032274" width="72.1470635" height="72.4047429"/>
  <rect x="387.4392925" y="77.5677236" width="72.1469086" height="72.2758774"/>
  <rect x="232.4351056" y="387.4694298" width="72.2759032" height="71.9189734"/>
  <rect x="232.4351056" y="464.7109273" width="72.2759032" height="71.9191025"/>
  <rect x="232.4351056" y="542.7849899" width="72.2759032" height="71.9191025"/>
  <rect x="232.4351056" y="619.4120204" width="72.2759032" height="71.9191025"/>
  <rect x="773.1034497" y="464.7109273" width="72.2759032" height="71.9191025"/>
  <rect x="850.2885931" y="464.7109273" width="72.2759032" height="71.9191025"/>
  <rect x="77.435465" y="387.4694298" width="72.2757741" height="72.0775831"/>
  <rect x="77.435465" y="464.5524468" width="72.2757741" height="72.0775831"/>
  <rect x="850.2887222" y="387.4694298" width="72.2757741" height="72.0775831"/>
  <rect x="154.8708654" y="155.3302839" width="72.2757741" height="72.0776863"/>
  <rect x="387.3104528" y="387.4694298" width="72.2757483" height="71.9189734"/>
  <rect x="387.3104528" y="464.7109273" width="72.2757483" height="71.9191025"/>
  <rect x="309.8706351" y="619.3327156" width="72.2759032" height="72.0777122"/>
  <rect x="309.8706351" y="696.5939909" width="72.2759032" height="72.0777122"/>
  <rect x="618.2290587" y="619.3327156" width="72.2759032" height="72.0777122"/>
  <rect x="695.6662579" y="619.3327123" width="72.2759032" height="72.0777122"/>
  <rect x="387.4888402" y="542.1703937" width="72.0973609" height="71.9191025"/>
  <rect x="232.3062659" y="77.5676978" width="72.4047429" height="72.2759032"/>
  <rect x="77.4354004" y="232.5675966" width="72.2759032" height="72.6328071"/>
  <rect y="232.5675966" width="72.2759032" height="72.6328071"/>
  <rect x="309.8706351" y="77.5676978" width="72.2759032" height="72.2759032"/>
  <rect x="232.3062659" y=".0033544" width="72.4047429" height="72.404717"/>
  <rect x="154.7418967" y="77.5676978" width="72.4047429" height="72.2759032"/>
  <rect x=".0000645" y="387.4694298" width="72.2757741" height="72.0775831"/>
  <rect x="927.7241226" y="387.4694298" width="72.2757741" height="72.0775831"/>
  <rect x="927.7241226" y="233.1228207" width="72.2758774" height="72.0775831"/>
  <rect x="77.4353617" y="155.3302839" width="72.2758774" height="72.0776863"/>
  <rect x="232.3062659" y="154.7752922" width="72.4047429" height="72.632678"/>
  <rect x="309.8706351" y=".0033544" width="72.2759032" height="72.404717"/>
  <polygon points="459.5862011 619.4120204 387.4888402 619.4120204 387.4888402 691.3311229 459.5862011 691.3311229 459.5862011 619.5905369 459.5862011 619.4120204"/>
  <polygon points="612.9405927 227.4079702 612.9405927 155.1321961 541.487456 155.1321961 541.487456 227.4079702 541.8742332 227.4079702 612.9405927 227.4079702"/>
  <rect x="618.2290587" y="155.0032274" width="72.1470635" height="72.4047429"/>
  <polygon points="613.6344937 149.843601 613.6344937 77.5677236 541.487456 77.5677236 541.487456 149.843601 542.181357 149.843601 613.6344937 149.843601"/>
  <rect x="541.487456" y="233.0235961" width="71.4531367" height="72.1768077"/>
  <rect x="695.6662542" y="464.7109242" width="72.2759032" height="71.9191025"/>
  <rect x="773.1034497" y="155.3302839" width="72.2759032" height="72.0776863"/>
  <rect x="541.487456" y="387.4694298" width="71.5819764" height="71.9189734"/>
  <rect x="232.4351056" y="310.3600301" width="72.2759032" height="71.9189734"/>
  <rect x="77.435465" y="310.3600301" width="72.2757741" height="72.0775831"/>
  <rect x="850.2887222" y="310.3600301" width="72.2757741" height="72.0775831"/>
  <rect x="387.3104528" y="310.3600301" width="72.2757483" height="71.9189734"/>
  <rect x=".0000645" y="310.3600301" width="72.2757741" height="72.0775831"/>
  <rect x="927.7241226" y="310.3600301" width="72.2757741" height="72.0775831"/>
  <rect x="695.6662542" y="310.360027" width="72.2759032" height="71.9189734"/>
  <rect x="541.487456" y="310.3600301" width="71.5819764" height="71.9189734"/>
  <rect x="541.487456" y="464.7109273" width="71.5819764" height="71.9191025"/>
  <rect x="541.487456" y="542.1703937" width="71.4034598" height="71.9191025"/>
  <rect x="695.6662625" y="77.5660206" width="72.4047429" height="72.2759032"/>
  <rect x="618.2290587" y="77.5676978" width="72.2759032" height="72.2759032"/>
  <rect x="695.6662654" y=".0016772" width="72.4047429" height="72.404717"/>
  <rect x="773.1034497" y="77.5676978" width="72.4047429" height="72.2759032"/>
  <rect x="850.2886189" y="233.1228207" width="72.2758774" height="72.0775831"/>
  <rect x="850.2886189" y="155.3302839" width="72.2758774" height="72.0776863"/>
  <rect x="695.6662707" y="154.773615" width="72.4047429" height="72.632678"/>
  <rect x="618.2290587" y=".0033544" width="72.2759032" height="72.404717"/>
  <polygon points="541.487456 619.5905369 541.487456 691.3311229 612.8909158 691.3311229 612.8909158 619.4120204 541.487456 619.4120204 541.487456 619.5905369"/>
  <rect x="464.7458274" y="619.5905369" width="71.2252273" height="71.7602605"/>
  <rect x="464.7501156" y="619.4319273" width=".1785165" height=".1586096"/>
  <rect x="464.7458274" y="696.6732958" width="72.2759032" height="71.9191025"/>
  <rect x="464.7458274" y="773.7826955" width="72.2759032" height="71.9191025"/>
  <rect x="464.7458274" y="850.8920951" width="72.2759032" height="71.9191025"/>
  <rect x="541.487456" y="773.7826955" width="72.2759032" height="71.9191025"/>
  <rect x="541.487456" y="696.6732958" width="72.2759032" height="71.9191025"/>
  <rect x="618.2290587" y="696.6732958" width="72.2759032" height="71.9191025"/>
  <rect x="387.3995691" y="696.6732958" width="72.2759032" height="71.9191025"/>
  <rect x="387.3995691" y="773.7826955" width="72.2759032" height="71.9191025"/>
</svg>