<?xml version="1.0" encoding="UTF-8"?>
<svg id="Layer_1" xmlns="http://www.w3.org/2000/svg" width="383.0089671" height="300" version="1.1" viewBox="0 0 383.0089671 300">
  <!-- Generator: Adobe Illustrator 29.0.0, SVG Export Plug-In . SVG Version: 2.1.0 Build 186)  -->
  <g id="_x32_Zrf1V.tif">
    <g>
      <path d="M69.2890407.2934809c23.7409997,1.7293816,53.6488655,12.0561849,75.7377695,21.3698687,35.2792787,14.8753441,68.9580725,35.6105781,99.0247697,59.1447656l-15.9817746,6.9625174c-30.9945512-21.8135981-64.4363281-41.8122443-99.5453839-56.3707839-17.6106569-7.3025446-56.61028-22.5089865-74.2734136-14.2900336-5.2539387,2.444746-8.4246884,7.5852288-8.2350095,13.4758052.5990393,18.6034813,35.2888106,46.7690713,49.591355,57.648464,18.9972346,14.4504621,39.5387769,26.9471953,60.343345,38.6143209.9700366.9833001.1491698,1.2115406-.4399277,1.8529084-.8024443.8736448-11.6106727,8.5995485-12.3621626,8.6779159-2.0471184.2134793-16.8509611-9.1197864-19.7876125-10.9466574-29.9428495-18.6272449-83.8178846-60.0009378-94.7882414-94.0979683C22.1173206,12.2704326,32.3946712,2.1081808,52.0363419.2934809c4.6943953-.4337166,12.4962768-.3464752,17.2526988,0Z"/>
      <path d="M132.6739558,299.8839883c-8.5461235-.7807298-18.2816244-3.779436-23.4956623-10.9929874l-14.3816908-25.7027281c3.6678203-.1041855,7.2255761,1.2927062,10.8442066,1.5227096,75.0807053,4.7721965,200.067464-68.2266826,244.0671199-127.8541384,6.7642003-9.1667093,13.4118676-19.7382027,15.8855189-30.9569123.9246697.0634911,1.2249544,1.0665837,1.639796,1.7244913,3.5816882,5.6802889,15.140024,24.6358272,15.6355887,30.0761541,1.1215598,12.3125246-4.7043134,20.6863778-9.7913094,31.1107834l-8.2530637-14.2285194-9.6890669,4.5536543c-1.2577923,1.7222706,9.5387862,16.6921107,10.2478168,19.7998238l-26.784105,28.4782534c-1.0102847.8706256-1.2026892.1726539-1.8622365-.4336584-2.8541238-2.6237547-5.6509082-10.8249857-8.2907956-14.2084028l-.8134072-.6971766-9.1166336,5.5605427,10.2229072,18.005865c-4.4329056,3.1238681-27.6791362,22.8269857-31.0614239,22.8542058-1.0629293.0085543-1.2444373-.5415066-1.7634559-1.245295-1.8251665-2.4749226-6.4397052-13.2089473-8.3445891-14.1910508-2.0327499-1.0480275-7.0575313,4.2923852-9.746355,4.1846738l9.7192369,18.6782807-33.3630855,18.6884915-10.4742889-17.0833812-9.3116846,5.5302836,9.3306696,16.8851242-34.6313359,14.9535515-1.6492954-.124781-10.2514437-17.8365059-9.400686,5.6266555,9.0190745,16.8295579c-12.9117581,3.6206998-25.8262252,7.4643233-39.2286718,9.034334l-11.401304-18.6831517c-1.524583,1.8533426-8.6745207,3.9790263-8.66205,6.2623911l7.5326418,13.8788617c-4.0166748-.2634222-8.4133139.3620961-12.3769361,0Z"/>
      <path d="M311.426341,74.6662486c48.9127838-3.7934681,57.1535264,17.5139852,29.6981483,55.1181649-38.8902203,53.2658784-135.865371,109.2298407-200.4193759,121.1963189-45.2502715,8.3881146-81.9160011-.8696818-46.52312-50.9462071,38.9973589-55.176413,149.8261251-120.1396052,217.2443476-125.3682767ZM308.4216303,88.8925693c-31.763826,2.8929616-79.6602944,27.1203034-107.6160099,43.0919179-27.722537,15.8383954-81.1262188,50.7260658-96.3897514,78.2683461-7.2575404,13.0958683-6.6843274,27.2080158,11.0125045,28.9569213,35.1498271,3.4737135,101.1582497-31.4275547,131.5758919-49.8622552,24.1536688-14.6384013,78.5915046-51.2372408,88.1924915-77.4653931,7.5482909-20.6205599-10.3950103-24.4813927-26.7751266-22.9895369Z"/>
      <path d="M216.3118309,92.4296916c.2877471.4246952-1.4874972,1.8285684-1.9841055,2.1261609-5.2929629,3.1718079-12.4291788,5.876104-18.0230749,8.967271-9.0763288,5.0155469-17.9866033,10.4345644-26.7154364,16.0308973l-3.5408427.2493812c-33.4015685-19.4749647-72.814714-41.640832-98.2393268-71.2211595-3.3388788-3.8846267-12.0718252-15.0155401-10.4117556-20.0743992,5.0600571-4.352364,14.0075548-2.76436,20.2991645-1.7815905,14.6873243,2.2942069,31.7913418,8.7397672,45.577123,14.4103111,32.8820606,13.5254698,63.3173848,32.0383947,93.0382545,51.2931278Z"/>
      <path d="M86.530748,165.0672483l-31.9045407-23.2039778,10.1583218-18.7237933-9.7315918-5.2568354-9.3924551,16.4633705c-3.971586-3.0474289-28.3516682-27.2937315-27.8126399-29.9897404,1.6643926-4.4791136,9.0712419-13.0939692,10.0730771-16.9824614.7807929-3.0305455-6.897148-4.714444-8.5170269-6.9274768l-8.998883,14.203514C4.2491455,85.6498723-1.4340909,73.3363006.3241311,62.130036c.2891401-1.8428736,1.9365211-4.3913016,2.8249745-6.1672353,3.9352314-7.8661534,9.3854847-15.9258615,14.0102184-23.4599493,10.2384484,29.5834295,34.7578922,53.8726476,58.5241701,73.3778554,17.9423946,14.725492,37.5092345,27.3326841,57.3505583,39.3394459l-32.60722,29.4075933-4.7926889-3.7998533,9.6424941-16.6259379-9.7473688-5.2916058-8.9985208,16.1568992Z"/>
      <path d="M31.7831738,183.0436904v14.2305491h13.1270534c1.8380146,2.4949677,1.8126819,8.8271862,0,11.234644h-13.1270534v14.2305491h-11.2517601v-14.2305491H6.2791843v-11.234644h14.2522294v-14.2305491h11.2517601Z"/>
      <polygon points="279.3218955 16.0219825 279.3218955 30.2525316 293.5741249 30.2525316 293.5741249 40.7381994 279.3218955 40.7381994 279.3218955 54.9687485 268.0701354 54.9687485 268.0701354 40.7381994 253.817906 40.7381994 253.817906 30.2525316 268.0701354 30.2525316 268.0701354 16.0219825 279.3218955 16.0219825"/>
      <path d="M308.4213382,100.1269206c6.3496843-.6157287,19.8930584-2.5628729,16.8205076,7.0652073-7.6057629,23.8332583-69.1525959,64.2063982-91.4461906,77.2055929-24.5700987,14.3266037-91.1477674,48.6498776-118.2936373,43.4973007-11.3489838-2.1541587,2.0251829-17.8968532,5.90953-22.3926748,34.2223096-39.6095901,126.4280177-92.7857363,177.5504792-103.5857092,2.9934766-.6323926,6.4612483-1.4989949,9.4593111-1.7897169Z"/>
    </g>
  </g>
</svg>