<?xml version="1.0" encoding="UTF-8"?>
<svg id="Layer_1" xmlns="http://www.w3.org/2000/svg" width="299.8174901" height="300" version="1.1" viewBox="0 0 299.8174901 300">
  <!-- Generator: Adobe Illustrator 29.0.0, SVG Export Plug-In . SVG Version: 2.1.0 Build 186)  -->
  <g id="_x31_yTK8g.tif">
    <g>
      <polygon points="145.2717939 300 141.6156864 297.2951768 90.3764616 126.6110847 209.5395 126.6110847 158.2951422 297.2913864 153.9747124 300 145.2717939 300"/>
      <path d="M39.497861,300h-4.0167316c-4.2498546-3.1537709-4.0641457-8.9762988-6.5698089-13.8485768-3.1121699-6.0516341-8.6035863-11.6441607-14.6131469-14.8428851C9.0783816,268.5301858,2.6909603,268.9789647,0,263.8494153v-2.6778211c2.4726561-5.0289424,8.4601351-4.5437933,13.4195715-6.9988143,6.4366587-3.1862758,12.5314435-9.2629053,15.732199-15.7321987,2.3531649-4.7561627,2.3335291-13.7305405,8.6582615-13.4656202,5.5875536.2340425,5.795254,8.9746975,8.0171879,13.4656202,3.1606476,6.3882298,9.3533883,12.568249,15.7360066,15.7283912,3.9962874,1.9786295,11.5018937,2.3154339,12.9062698,6.5231753,2.5244,7.5635167-8.0224587,7.7880198-12.9082084,10.1579509-8.8308962,4.2836036-14.1568592,11.5364119-17.6842028,20.4747502-1.2852512,3.2568445-.6411802,6.6637341-4.3792241,8.6751513Z"/>
      <path d="M209.5395,115.8998004h-119.1630383l17.8862733-64.7914527c.832093-3.6175649,3.5133574-5.5495195,7.1925861-5.5270641,22.2126053,1.3534406,46.3599545-1.7113379,68.3381879-.0023237,3.4901498.2713919,5.7685194.5164267,7.3374158,4.0433238l18.4085752,66.2775166Z"/>
      <path d="M299.2465063,126.6110847c-.7008054,4.3007739-2.8599183,8.1938519-5.3701801,11.7009293-36.052979,43.0760977-69.8545932,88.0349991-105.7758511,131.211315-4.6811986,5.6266657-9.2791764,11.5368219-14.7050041,16.4178368l47.5247686-159.3300811h78.3262668Z"/>
      <path d="M78.995722,126.6110847l47.1965405,160.6760647L5.7500685,137.9321256c-2.3561085-3.4206224-4.4164941-7.1743065-5.0806132-11.3210409h78.3262668Z"/>
      <path d="M98.4099249,45.6069969l-19.4142029,70.2928035H.6694553c.0792283-1.8560569.8251475-3.8103296,1.4989471-5.530279,3.0609049-7.8133052,34.0127725-48.0000218,41.0029705-55.3986428,4.7236583-4.999652,13.1037819-9.3638817,20.0921503-9.3638817h35.1464017Z"/>
      <path d="M299.2465063,115.8998004h-78.3262668l-19.4142029-70.2928035h35.1464017c5.2335225,0,12.944176,3.1082095,17.0151969,6.4157376,12.562485,17.1947248,30.9825954,35.8506859,41.8376616,53.8944421,1.7983492,2.9892931,3.3209882,6.48358,3.7412093,9.9826238Z"/>
      <path d="M271.6158405.2157994c6.7440228-1.4739537,6.5405032,4.9301854,8.5349574,9.256846,2.0306726,4.4052307,4.7375237,7.4145818,9.0423011,9.7024464,4.3846464,2.3303127,12.5457318,2.5174097,10.2133657,9.5055116-1.3095222,3.9235156-6.5356478,3.9143688-10.2133657,5.8688032-4.5108965,2.3972072-7.1675618,5.5326409-9.2634686,10.1507342-1.6172417,3.5634089-1.3420573,8.7693522-6.4713451,8.9863645-5.9349085.2510968-5.7375767-6.496306-8.0076885-10.7689114-2.399139-4.5154491-5.5309713-7.1628456-10.1506914-9.2635115-3.45346-1.5703474-8.6536771-1.4205381-8.9319185-6.5096445-.3092375-5.6560325,6.8197732-5.8991757,10.7144154-7.9693462,4.7846505-2.5432482,7.2628644-5.7542716,9.4795337-10.6041245,1.3585178-2.9723025,1.0897782-7.4887802,5.0539045-8.3551679Z"/>
    </g>
  </g>
</svg>