<?xml version="1.0" encoding="UTF-8"?>
<svg id="Layer_1" xmlns="http://www.w3.org/2000/svg" width="468.5369926" height="300" version="1.1" viewBox="0 0 468.5369926 300">
  <!-- Generator: Adobe Illustrator 29.0.0, SVG Export Plug-In . SVG Version: 2.1.0 Build 186)  -->
  <g id="TFApPs.tif">
    <g>
      <path d="M468.4987202,300h-73.4691175l-.956021-45.6218572c13.3440111-3.4839731,37.7065151-6.6045156,45.0728009-19.318253,10.8557669-18.7363585-4.1813774-40.218621-25.2315359-36.8907045-4.1233468.6518789-8.1390349,3.9176558-12.4913746,3.4690353,22.0015405-24.3329745,64.354611-14.8633247,67.1135205,20.1617022l-.0382724,78.2000771Z"/>
      <path d="M0,300l.482414-84.060607c7.1198942-29.8159456,45.3404409-36.7902372,65.5240002-15.3550451.2080181,2.7782284-.4220362,1.1140319-1.8281879.7595394-3.1016126-.7819202-6.6682343-2.7088987-9.5944869-3.17469-22.5556752-3.5903384-37.8823076,21.3296818-23.5234367,39.4385999,8.4688669,10.680646,29.8529774,12.9500034,42.2693908,16.8077362l.1394239,45.5844667H0Z"/>
      <path d="M258.7390659,258.5263637v-127.0794753c0-5.0675797-16.4827062-.248709-20.6339975-.6384106-34.9913579-3.2848066-33.8413791-57.0336957,2.1608941-58.3042912,3.1696126-.1118623,18.4731033,5.4065632,18.4731033.4542404V25.1042313c23.2976121-24.5339107,60.8454264-26.6888736,88.7103753-7.7780444,54.7771712,37.1750809,14.2612306,124.7878212-14.7082305,166.7395167-8.046539-15.1526119-28.858197-22.7273605-42.0514358-9.0107209-16.4683128,17.1216421.4180494,35.3063431,10.527554,49.8220049-12.1486045,12.6211438-25.3046326,28.4591221-42.4782629,33.6493762Z"/>
      <path d="M212.9539637,258.5263637c-4.0936736,4.3282346-41.4340757-30.8122665-44.6464125-35.7692009,9.4001917-13.1943602,22.0181958-25.3413,12.9226347-42.6067505-8.7053219-16.5246874-34.8927407-16.0957487-42.7214736,1.143213l-2.1981346.6582377c-5.8675814-10.8007718-12.9963098-20.9489534-18.6762601-31.8722909-17.3899962-33.4433909-36.3203009-84.1696574-15.2054294-119.4474885,22.8566455-38.1879133,82.8967169-41.0789744,110.3069954-6.3734739l.2165041,38.6011748c-27.852648-4.7020149-51.3640631,17.7690606-46.7078246,46.1243947,3.4732897,21.1514703,25.7226734,36.3401319,46.7094007,31.5018351v118.0403494Z"/>
      <path d="M304.2318252,179.0177964c13.0310462-2.6906277,14.0689753,6.9423825,21.0428649,14.6520202,20.8307088,23.0283566,39.6332595,28.693516,70.4244929,21.39308,10.3533666-2.4547276,26.8044936-12.8128047,34.308227-.5084844,5.882654,9.6461395.6559289,17.0764866-8.3782424,21.0886244-43.531139,19.3324787-100.6997994,10.4040512-123.935262-34.6322369-4.2050578-8.1504809-4.2231145-19.7710837,6.5379196-21.9930033Z"/>
      <path d="M156.2102855,178.9990704c6.2288906-1.4204416,11.6103716.3970863,15.2165896,5.6204492,6.5614019,9.5037469-2.6389731,20.2013943-8.5461476,27.6187702-25.6526189,32.2108507-61.1595255,38.7943453-100.0728008,28.755011-11.7545564-3.0325877-34.1301501-9.1098787-24.6900239-25.7485759,7.4215303-13.0808204,23.0262468-3.0070127,33.8306786-.3953727,29.3880795,7.1036668,50.0587656,2.5947833,70.2133028-20.1134882,3.5838674-4.0379708,9.3476049-14.6648199,14.0484012-15.7367935Z"/>
      <path d="M425.6511931,106.7307141c47.7852177-6.5202376,53.3414672,62.9498304,10.2611115,67.6664527-45.6701643,5.0001657-52.0549014-61.9637385-10.2611115-67.6664527Z"/>
      <path d="M30.6240882,106.7331748c48.0830761-7.0525269,54.5482677,62.821134,10.2586281,67.6640065-44.9029441,4.9099346-51.1262285-61.6698007-10.2586281-67.6640065Z"/>
      <path d="M81.0842665,206.2519859l-10.8069512-16.8355044c13.356041-2.1954324,25.9104143-5.3900661,36.708884-13.8605276,2.0022419-1.5705848,6.8587664-8.4274368,9.1058847-6.9274243,2.290442,6.6969808,11.0555601,15.0567593,13.293202,20.833412,1.4782383,3.8161912-9.0589766,11.0059076-12.5744103,12.9211186-10.9002216,5.9384491-23.796915,5.6180704-35.7266092,3.8689257Z"/>
      <path d="M398.2214039,189.4164821c-2.4058662,3.0708011-4.9516794,6.052037-7.2644327,9.2124933-5.0954864,6.9631561-1.9688932,8.0912704-13.5076742,8.8328133-14.1117983.9068985-27.9520698-3.8573189-37.5304468-14.3263132l15.186585-23.9331474c10.3636913,13.1890852,27.2114308,17.7819922,43.1159686,20.2141539Z"/>
    </g>
  </g>
</svg>