<?xml version="1.0" encoding="UTF-8"?>
<svg id="Layer_1" xmlns="http://www.w3.org/2000/svg" width="335.7069243" height="300" version="1.1" viewBox="0 0 335.7069243 300">
  <!-- Generator: Adobe Illustrator 29.0.0, SVG Export Plug-In . SVG Version: 2.1.0 Build 186)  -->
  <g id="T31kIn.tif">
    <g>
      <path d="M191.446379,299.9853094c-8.9865484-.3143217-16.7987815-7.8417817-17.6945611-16.7217889l-.037384-254.3388158c1.2624103-19.054054,18.486274-32.536918,37.3093355-28.0630986,1.4068563.3343782,7.3937672,2.0597242,7.2333802,3.7319334-.0590212.6153599-4.0300661,6.4967337-4.822656,8.3264311-1.647046,3.8022131-2.5560468,7.7231648-3.2911215,11.7852745-3.8057462,1.2794097-12.3619235,5.048533-12.8428351,9.4712549-.5131057,4.7187952,2.2089986,7.4785126,6.9545953,6.9525467,3.2538509-.3606321,5.8485589-5.1646788,11.6744984-5.0479554,6.1970639.1241589,13.5103069,9.7899152,17.7455794,2.3219315,3.8884319-6.8564056-5.9976871-11.6827703-11.3907543-13.0924376,3.5100685-22.4674537,29.9190882-32.931616,48.0542108-18.8573021,5.19679,4.0331271,8.9721674,9.9432253,10.497429,16.3791762,1.0518199,4.4382298-.0718243,12.1832069,5.3997531,12.9775264,11.7698408,1.7086506,6.7419328-16.01076,4.2048909-21.9643487l.9904777-1.6053477h10.4902125c1.1987621,0,6.5245294,1.8850552,7.9845677,2.5049468,15.800214,6.7083297,23.3514214,24.9554116,17.9379653,41.107666-.5140852,1.5338879-3.4366476,8.2174377-4.8179462,8.0856002-1.2534168-.1196318-5.5954666-2.4153002-7.6413996-2.889363-7.1309302-1.6523068-14.6521082-1.3286786-21.6640249.6726832-1.9231468.5489102-6.2093176,2.9035507-7.534608,2.9069385-1.5481763.0039577-8.6007612-4.0609432-12.5242162-4.4691154-4.3066989-.4480425-10.4074151.2957416-10.0863797,6.1045446.3813071,6.8993565,9.0528046,5.1900074,13.7609178,7.2598887,3.7206169,1.6357371,7.7997362,5.9969576,9.2090283,9.8017504,1.6142727,4.3581972.4828283,13.9307611,7.9946934,12.7035944,9.4247158-1.5396572,3.674347-17.0203773.4979252-22.169298,21.2310341-6.8117925,42.9968096,8.7421532,40.4678902,31.6010388-1.1523205,10.415818-8.684154,20.3283778-18.3863963,24.2239853-3.3963008,1.3636698-8.1111632,1.3420317-10.1774739,4.2436075-1.8835385,2.6449216-1.7341844,5.3755879.5405243,7.7757597,3.7117729,3.9164983,12.5566193-.4266396,16.7410613-2.1371113,10.6063762,13.1204356,4.9822427,33.5875931-9.0786195,41.8911477-16.0979269,9.5065305-35.907514,2.8402144-43.0734257-14.1799472,6.3939495-1.4101559,22.0036461-9.6812446,21.7004531-17.0508867-.1602947-3.896246-4.246589-6.4855901-7.9485475-5.2940553-1.9609481.6311627-6.227949,5.8313566-8.9340988,7.456307-5.9285,3.5598617-12.693947,4.351939-19.3610911,2.549493-5.4044663-1.4610841-12.3001314-9.5579916-16.6237944-3.1297282-6.0584375,9.0074624,12.6164755,14.677099,18.5793507,15.9240438,4.5562935,15.3376729,18.0682389,27.8376949,34.2350779,29.3520097.8532598,16.8701264-14.6563821,32.1178247-31.477263,30.4811945-4.4157796-11.3439164-11.9076995-21.3654613-23.5898937-25.9108006,4.4594465-5.368383,13.633695-29.6927979-.2882384-27.4792285-5.654466.8990528-4.4834835,9.2285527-5.9578155,13.7073282-2.6697545,8.1102702-10.205279,13.9768415-18.392128,15.6966886-3.0301413.636555-8.3586619-.6147733-9.8135224,3.9491963-3.198428,10.0336273,9.1067008,8.4631828,14.9198579,7.0547995,7.4426916-1.8031789,7.5364704-5.6250852,15.8455604-1.6943918,33.2256787,15.7177211,12.6516634,68.4012677-24.0291868,54.828924-4.2994909-1.5908619-8.3595281-6.3884341-13.0835026-2.4799481-7.6509394,6.3301759,6.5156435,13.9141514,11.8696002,14.5027695.8305945,7.5578596-3.4683787,15.469064-10.614394,18.3986275-1.3137741.5385917-5.1885577,1.7804901-6.3502818,1.8443607-.4299576.0236387-.8803188.0150736-1.3112766,0ZM232.6042106,83.8656192c-20.9596411-.2066461-42.5342269,20.744897-40.5320911,42.1287296.7715174,8.2401995,10.7796183,7.0352276,11.7971478.5887229,2.0397987-12.9230376,4.3131162-22.3350142,17.7459118-28.140931,5.0850608-2.1978627,8.5320486-1.5059814,13.1499982-2.5846055,7.2939345-1.7036594,6.5558721-11.9059746-2.1609667-11.991916Z"/>
      <path d="M0,85.6513196C5.6364735,31.5358179,52.2745037-7.1625319,107.0054969,1.2888531c21.6525402,3.343516,40.6389977,15.4737271,54.9371593,31.5982886v261.8545227c-2.6489639-1.0171292-5.2048892-4.0988624-7.2293174-6.209537-19.4159561-20.243131-39.2418951-40.4022652-58.9728532-60.3365003-23.6089925-23.8522229-50.959197-48.3216116-72.7754517-73.4114279C10.4948795,140.4428794,1.4408523,119.8031025,0,100.726799v-15.0754794ZM96.1692646,13.7578876c-3.010857-3.2964735-16.944865-.8605127-21.4332565.1142864-31.1536979,6.7660316-55.8603092,33.18681-61.4164512,64.4481393-.8938897,5.0294215-3.7953303,18.570268,5.2114396,17.6808389,6.2437155-.6165742,5.1182604-6.7918234,5.7351264-10.6700563,4.8676955-30.6031703,25.2959644-55.5124924,56.8965673-60.4458409,3.4436976-.5376151,10.7109184-.3863045,13.0799648-1.3436926,3.7325535-1.5084138,4.5303991-6.9328842,1.9266096-9.7836749ZM18.8276438,108.0751128c-7.0125301,1.5727857-2.9323932,16.6497882,2.5194779,17.5199477,9.2386357,1.4745554,7.7162325-8.0620282,5.2080511-13.7273378-1.4287562-3.2271773-4.2759024-4.5667483-7.727529-3.7926099Z"/>
    </g>
  </g>
</svg>