<?xml version="1.0" encoding="UTF-8"?>
<svg id="Layer_1" xmlns="http://www.w3.org/2000/svg" width="325.0935844" height="300" version="1.1" viewBox="0 0 325.0935844 300">
  <!-- Generator: Adobe Illustrator 29.0.0, SVG Export Plug-In . SVG Version: 2.1.0 Build 186)  -->
  <rect x="125.9540283" y="50.4324817" width="23.4544971" height="23.4963905"/>
  <polygon points="174.3148096 50.3905548 151.0858869 50.3905548 151.0858869 73.9288722 174.3148096 73.9288722 174.3148096 50.4324817 174.3148096 50.3905548"/>
  <rect x="100.7788404" y="50.3905548" width="23.4545475" height="23.5383174"/>
  <rect x="125.9540283" y="25.2167693" width="23.4544971" height="23.496424"/>
  <rect x="75.5631616" y="125.9638258" width="23.4964324" height="23.3803969"/>
  <rect x="75.5631616" y="151.0745411" width="23.4964324" height="23.3804388"/>
  <rect x="75.5631616" y="176.4559179" width="23.4964324" height="23.3804388"/>
  <rect x="75.5631616" y="201.3668739" width="23.4964324" height="23.3804388"/>
  <rect x="251.3309716" y="151.0745411" width="23.4964324" height="23.3804388"/>
  <rect x="276.4233665" y="151.0745411" width="23.4964324" height="23.3804388"/>
  <rect x="25.1737729" y="125.9638258" width="23.4963905" height="23.4319598"/>
  <rect x="25.1737729" y="151.0230201" width="23.4963905" height="23.4319598"/>
  <rect x="276.4234085" y="125.9638258" width="23.4963905" height="23.4319598"/>
  <rect x="50.3475248" y="50.4968788" width="23.4963905" height="23.4319934"/>
  <rect x="125.9121434" y="125.9638258" width="23.4963821" height="23.3803969"/>
  <rect x="125.9121434" y="151.0745411" width="23.4963821" height="23.3804388"/>
  <rect x="100.7369555" y="201.3410925" width="23.4964324" height="23.4320018"/>
  <rect x="100.7369555" y="226.4582374" width="23.4964324" height="23.4320018"/>
  <rect x="200.9823007" y="201.3410925" width="23.4964324" height="23.4320018"/>
  <rect x="226.1566373" y="201.3410914" width="23.4964324" height="23.4320018"/>
  <rect x="125.970136" y="176.2561167" width="23.4383895" height="23.3804388"/>
  <rect x="75.5212767" y="25.2167609" width="23.5383174" height="23.4964324"/>
  <rect x="25.1737519" y="75.6062336" width="23.4964324" height="23.6124596"/>
  <rect y="75.6062336" width="23.4964324" height="23.6124596"/>
  <rect x="100.7369555" y="25.2167609" width="23.4964324" height="23.4964324"/>
  <rect x="75.5212767" y=".0010905" width="23.5383174" height="23.538309"/>
  <rect x="50.3055979" y="25.2167609" width="23.5383174" height="23.4964324"/>
  <rect x=".000021" y="125.9638258" width="23.4963905" height="23.4319598"/>
  <rect x="301.5971604" y="125.9638258" width="23.4963905" height="23.4319598"/>
  <rect x="301.5971604" y="75.7867334" width="23.496424" height="23.4319598"/>
  <rect x="25.1737393" y="50.4968788" width="23.496424" height="23.4319934"/>
  <rect x="75.5212767" y="50.3164545" width="23.5383174" height="23.6124177"/>
  <rect x="100.7369555" y=".0010905" width="23.4964324" height="23.538309"/>
  <polygon points="149.4085255 201.3668739 125.970136 201.3668739 125.970136 224.7473128 149.4085255 224.7473128 149.4085255 201.4249085 149.4085255 201.3668739"/>
  <polygon points="199.2630543 73.9288722 199.2630543 50.4324817 176.034098 50.4324817 176.034098 73.9288722 176.1598368 73.9288722 199.2630543 73.9288722"/>
  <rect x="200.9823007" y="50.3905548" width="23.4545475" height="23.5383174"/>
  <polygon points="199.4886371 48.7131934 199.4886371 25.2167693 176.034098 25.2167693 176.034098 48.7131934 176.2596807 48.7131934 199.4886371 48.7131934"/>
  <rect x="176.034098" y="75.7544761" width="23.2289563" height="23.4642171"/>
  <rect x="226.1566361" y="151.0745401" width="23.4964324" height="23.3804388"/>
  <rect x="251.3309716" y="50.4968788" width="23.4964324" height="23.4319934"/>
  <rect x="176.034098" y="125.9638258" width="23.2708413" height="23.3803969"/>
  <rect x="75.5631616" y="100.8960546" width="23.4964324" height="23.3803969"/>
  <rect x="25.1737729" y="100.8960546" width="23.4963905" height="23.4319598"/>
  <rect x="276.4234085" y="100.8960546" width="23.4963905" height="23.4319598"/>
  <rect x="125.9121434" y="100.8960546" width="23.4963821" height="23.3803969"/>
  <rect x=".000021" y="100.8960546" width="23.4963905" height="23.4319598"/>
  <rect x="301.5971604" y="100.8960546" width="23.4963905" height="23.4319598"/>
  <rect x="226.1566361" y="100.8960537" width="23.4964324" height="23.3803969"/>
  <rect x="176.034098" y="100.8960546" width="23.2708413" height="23.3803969"/>
  <rect x="176.034098" y="151.0745411" width="23.2708413" height="23.3804388"/>
  <rect x="176.034098" y="176.2561167" width="23.2128067" height="23.3804388"/>
  <rect x="226.1566388" y="25.2162157" width="23.5383174" height="23.4964324"/>
  <rect x="200.9823007" y="25.2167609" width="23.4964324" height="23.4964324"/>
  <rect x="226.1566398" y=".0005453" width="23.5383174" height="23.538309"/>
  <rect x="251.3309716" y="25.2167609" width="23.5383174" height="23.4964324"/>
  <rect x="276.4233749" y="75.7867334" width="23.496424" height="23.4319598"/>
  <rect x="276.4233749" y="50.4968788" width="23.496424" height="23.4319934"/>
  <rect x="226.1566415" y="50.3159093" width="23.5383174" height="23.6124177"/>
  <rect x="200.9823007" y=".0010905" width="23.4964324" height="23.538309"/>
  <polygon points="176.034098 201.4249085 176.034098 224.7473128 199.2469047 224.7473128 199.2469047 201.3668739 176.034098 201.3668739 176.034098 201.4249085"/>
  <rect x="151.0858869" y="201.4249085" width="23.1548645" height="23.3288003"/>
  <rect x="151.0872809" y="201.3733456" width=".0580346" height=".051563"/>
  <rect x="151.0858869" y="226.4840189" width="23.4964324" height="23.3804388"/>
  <rect x="151.0858869" y="251.55179" width="23.4964324" height="23.3804388"/>
  <rect x="151.0858869" y="276.6195612" width="23.4964324" height="23.3804388"/>
  <rect x="176.034098" y="251.55179" width="23.4964324" height="23.3804388"/>
  <rect x="176.034098" y="226.4840189" width="23.4964324" height="23.3804388"/>
  <rect x="200.9823007" y="226.4840189" width="23.4964324" height="23.3804388"/>
  <rect x="125.9411145" y="226.4840189" width="23.4964324" height="23.3804388"/>
  <rect x="125.9411145" y="251.55179" width="23.4964324" height="23.3804388"/>
</svg>