<?xml version="1.0" encoding="UTF-8"?>
<svg id="Layer_1" xmlns="http://www.w3.org/2000/svg" width="132.1502358" height="300" version="1.1" viewBox="0 0 132.1502358 300">
  <!-- Generator: Adobe Illustrator 29.0.0, SVG Export Plug-In . SVG Version: 2.1.0 Build 186)  -->
  <g id="_x32_M0Qea.tif">
    <g>
      <path d="M99.909955.1975378c15.7390688,1.6929871,30.9060907,15.8805282,32.1265421,31.9091642,2.7323935,35.8855275-44.4622932,50.8076609-66.6144092,24.5890451C47.0153096,34.9100066,62.8651582,3.1118255,89.9771633.1975378c2.4495191-.2633005,7.4834379-.263467,9.9327918,0Z"/>
      <path d="M127.9524695,267.6897077l-4.3413515,17.0089759c-23.6737667,9.7442545-46.7006868,19.6916056-72.904754,13.2559178-53.1269265-13.04791-22.6335726-79.1029097-13.4805543-113.8416188,3.2690633-12.4071685,8.4288496-28.5845197,7.1056225-41.3192421-2.2395403-21.5533104-30.6897988-13.7825244-44.3314323-9.1480585l4.2204855-16.8345837c22.7588042-8.8241541,45.548526-18.8237241,70.5857879-13.9111657,14.556461,2.8561216,27.8554962,12.7857638,31.3568748,27.7045178,6.2606794,26.6756457-13.7436234,73.703535-19.9903193,101.3715104-2.1230441,9.4034243-6.6802442,29.5839244,1.2236739,36.8326962,8.5402749,7.8323817,30.7640552,3.1357514,40.5559667-1.1189494Z"/>
    </g>
  </g>
</svg>