<?xml version="1.0" encoding="UTF-8"?>
<svg id="Layer_1" xmlns="http://www.w3.org/2000/svg" width="319.9776169" height="300" version="1.1" viewBox="0 0 319.9776169 300">
  <!-- Generator: Adobe Illustrator 29.0.0, SVG Export Plug-In . SVG Version: 2.1.0 Build 186)  -->
  <g id="VIXgh8.tif">
    <g>
      <path d="M50.6149276,0c3.6916469,2.0696514,4.9419211,2.8693456,6.5465241,6.8874076l18.8592865,68.116367,234.8790113-.0525511c5.6915906.1933848,9.8365804,5.2389413,8.9609044,10.8720425l-18.8343097,113.0100704c-1.9878788,7.0073991-7.0813533,7.1718618-13.2769134,7.9678232l-184.0991924,17.8644056c-11.1311482,2.6984079-11.8388918,16.6533853-.2485596,19.0195112l152.5071666-.0375034c25.324659,1.5025455,36.0950951,33.8496225,16.2109022,49.9922247-21.9474352,17.817606-54.0168512-4.7567571-44.0401357-31.2261269h-78.7343318c5.9897765,14.469536-3.0693036,31.9350042-17.8434855,36.2035543-23.2436154,6.715535-42.6852561-14.9692403-34.6674336-37.420355-24.8074028-6.7329426-28.0901368-41.2748411-4.4467867-51.9807258l.0497701-2.0136178L41.2159009,18.7711233l-33.3668323-.0654078c-4.2448112-1.0042986-5.8927455-3.244913-7.8490687-6.8346209v-4.9983556C1.8598968,3.2996994,3.2997924,1.8597566,6.8736321,0h43.7412954ZM139.8000306,112.6074587c-3.3276849.6943657-6.7627171,4.3467212-7.2884585,7.7034033,1.0607384,12.5383412-1.5478635,27.7555567-.0531891,39.9641681,1.3305969,10.8684139,17.0726583,11.1152976,18.7234009.5714236,1.0571647-6.7524834.9141806-32.9143873.0533643-39.963966-.6764799-5.5399722-5.9608091-9.4173163-11.4351176-8.275029ZM196.038839,112.6074587c-3.3276849.6943657-6.7627171,4.3467212-7.2884585,7.7034033,1.0607384,12.5383412-1.5478635,27.7555567-.0531891,39.9641681,1.3305969,10.8684139,17.0726583,11.1152976,18.7234009.5714236,1.0571647-6.7524834.9141806-32.9143873.0533643-39.963966-.6764799-5.5399722-5.9608091-9.4173163-11.4351176-8.275029ZM252.2776474,112.6074587c-3.3276849.6943657-6.7627171,4.3467212-7.2884585,7.7034033,1.0607384,12.5383412-1.5478635,27.7555567-.0531891,39.9641681,1.3305969,10.8684139,17.0726583,11.1152976,18.7234009.5714236,1.0571647-6.7524834.9141806-32.9143873.0533643-39.963966-.6764799-5.5399722-5.9608091-9.4173163-11.4351176-8.275029ZM121.0528173,262.557204c-11.8213529,2.4260341-8.1428639,20.9646582,4.0957121,18.457109,11.5693163-2.3704253,8.407762-21.0231313-4.0957121-18.457109ZM252.2767036,262.557204c-11.8213529,2.4260341-8.1428639,20.9646582,4.0957121,18.457109,11.5693163-2.3704253,8.407762-21.0231313-4.0957121-18.457109Z"/>
      <path d="M219.3313528,0c6.3825684,3.4659382,10.5711636,9.642589,16.0200985,14.3250834,5.9368043-4.1174762,9.8725091-10.948056,16.4734353-14.3250834h4.9990052c8.8841896,4.0829912,8.6616781,12.5724077,1.8746269,18.7438336h16.5592047c.2735399,0,4.2521424,2.3102249,4.7020984,2.796046.3565627.3849835,2.4839715,4.1369364,2.4839715,4.3890902v30.302531h-93.7313474v-30.302531c0-.2521538,2.1274089-4.0041067,2.4839715-4.3890902.4499561-.4858211,4.4285585-2.796046,4.7020984-2.796046h16.5592047c-6.7870511-6.1714259-7.0095627-14.6608425,1.8746269-18.7438336h4.9990052Z"/>
      <path d="M169.9661765,37.4876672v18.7438336h-74.9850779v-11.5586974c0-.2735044,2.3105653-4.2516268,2.7964094-4.7014875.3850255-.3565091,4.137474-2.4836488,4.3896606-2.4836488h67.7990079Z"/>
    </g>
  </g>
</svg>