<?xml version="1.0" encoding="UTF-8"?>
<svg id="Layer_1" xmlns="http://www.w3.org/2000/svg" width="419.9284074" height="300" version="1.1" viewBox="0 0 419.9284074 300">
  <!-- Generator: Adobe Illustrator 29.0.0, SVG Export Plug-In . SVG Version: 2.1.0 Build 186)  -->
  <g id="Smsoib.tif">
    <g>
      <path d="M.2489186,106.8553748c.8032383-11.088743,7.6189872-48.1077884,15.0082681-55.7644769,1.8606038-1.9279364,8.2323514-5.6358321,10.8333411-6.0418028,5.4605151-.8522945,27.2239747-.842719,32.6984863.0030594,4.5831848.7080739,9.0616823,5.1051121,10.2013663,9.4855721,1.4240622,5.4734882,1.2787118,21.8756265-.7694772,27.005166-3.5926662,8.9975698-15.293298,13.1360741-23.8950742,8.4409417.1607486,11.984019,4.1193584,23.3879744,7.5028806,34.6785695,18.6170909-20.3156516,46.8398723-17.1591281,64.4040719,2.7173187,2.9201052.7617432,10.8196856-9.1196814,15.2906129-6.9237552-2.897424,4.8671369-7.4833783,6.9011778-10.3533005,12.1473178-9.3388651,17.0711924-4.1322966,34.2761233,10.1947869,46.1420024l-1.8500341,10.4701859c-32.5558066,9.9282905-67.9828399,7.4931277-98.5247027-7.6427394-5.7366246-2.8429434-13.8251577-6.6154544-16.8453831-12.2168225C8.9688659,159.7565975,1.3025887,131.8313782.2489186,120.9152925c-.374871-3.8836862-.2859468-10.1124086,0-14.0599177Z"/>
      <path d="M213.0860482,0c6.2894439,3.1168092,5.5981894,17.6851175,4.6327193,23.8465536-1.3018034,8.3078481-13.8661688,8.6521576-14.9669629-.8614831-.7482756-6.466991-1.6272928-19.6608089,4.7085925-22.9850705h5.625651Z"/>
      <path d="M291.0754214,189.1691608l-1.8876279-10.4239325c14.4634985-11.5571477,20.0030575-30.9157135,9.4044228-47.234405-2.8049487-4.3187725-7.848729-6.8067985-9.5552791-11.5278725,4.227146-1.0738684,12.9565868,8.0019255,15.2767268,7.3967717,17.4521642-19.7961419,45.9143074-23.1229966,64.4040719-2.7173187,3.3834922-11.2905083,7.3421292-22.6945018,7.5028806-34.6785695-11.6360496,5.6450147-24.2002547-1.643798-25.3441013-14.4909738-.9995248-11.2262173-2.2854123-29.1117807,12.6485715-30.5482355,6.512026-.6263721,24.7994703-.8526887,30.930831.1044701,15.1011759,2.357425,19.0611202,24.1197977,21.6311558,36.4896456,4.5307924,21.8071735,5.6080787,36.4841957.1931314,58.3249647-1.5062311,6.0752661-8.1838743,28.6551776-11.5198228,32.5380343-1.6261708,1.8927714-9.3387173,6.3027867-11.9618171,7.7256483-30.5264802,16.5586366-68.6544468,19.3178487-101.7231435,9.0417729Z"/>
      <path d="M244.3272055,94.3750467c4.2700946,4.6589527,8.496957.9565084,12.4053743.3514045,12.2706155-1.8997454,22.4623728,8.9112753,18.0380338,20.8373777-1.3271646,3.5774611-5.1226184,6.3664712-3.8984278,10.7722134,1.4741559,5.3053427,6.9466547,5.5327864,10.5976152,8.2321533,10.2905633,7.6084107,9.8364346,23.9869178-.5646516,31.1813653-3.5819154,2.4776165-8.5855298,2.6808619-10.0313814,7.8586957-1.1469529,4.1074283,2.6527929,7.1350211,3.8798356,10.7897394,4.0706302,12.1242776-5.520463,22.756461-18.0210239,20.8204645-3.8893489-.6023542-4.4572347-2.9392789-9.8643944-1.2733289-6.3845988,1.9670998-3.2616663,10.9989847-6.5938043,15.8559347-6.6666272,9.7173271-22.0222787,5.2312309-22.5030808-6.556191l.0631593-128.3563542c1.9809245-11.5192201,19.0920782-13.8046946,23.6094354-3.101879,1.6461556,3.9001787-.4142743,8.9905237,2.8833105,12.5884046Z"/>
      <path d="M176.239005,94.3995751c2.7941397-3.2963578,1.3771992-9.0658406,2.8611835-12.6152962,4.6526225-11.1283366,22.7960106-8.0951809,23.5893588,4.0640019l.0855979,127.3965945c-.7095574,11.8302429-15.699648,16.4397795-22.5041245,6.5572366-3.9446376-5.72903.831597-17.194403-10.7563785-16.4451077-2.4320106.1572573-4.3959034,1.5444835-6.6638571,1.8389102-11.9466805,1.550923-21.3147419-9.386205-17.0749533-20.8148315,1.3268476-3.5766041,5.1232731-6.3679856,3.8984278-10.7722134-1.4391491-5.1748087-6.4587121-5.383326-10.0329725-7.8592996-10.4954019-7.2704099-10.8876645-23.5484431-.5646426-31.1813742,3.6392781-2.6909135,9.121757-2.9259658,10.5976091-8.2321497,1.2143951-4.3661582-2.3176047-6.7684481-3.6192624-10.1139834-4.5879876-11.7920971,5.4791369-23.409773,17.7563364-21.4980466,3.6669874.5709996,8.5177919,4.2882069,12.4276776-.3244409Z"/>
      <path d="M208.1417708,270.1349568c3.225585-.7022795,6.8912023.1829376,8.5875006,3.2032472,1.4923198,2.65712,1.594571,17.8887575.8444776,21.2511161-1.6404318,7.3533781-13.4735339,7.3284206-14.7460712-.792346-.9106483-5.8113521-1.8546205-22.1012336,5.314093-23.6620173Z"/>
      <path d="M281.2061197,19.023619c5.168239-.2829626,8.6666624,5.1641054,7.3988502,10.0512313-.4929854,1.9003458-7.9751522,14.7198505-9.4024843,15.9321114-6.1213045,5.198943-14.7312171-.3217076-12.249329-8.4944411,1.2165636-4.0060831,9.620988-17.2352997,14.2529631-17.4889016Z"/>
      <path d="M144.3847912,253.2634312c5.7610958-1.2576274,10.3448298,2.5641844,9.4521679,8.4773251-.3113332,2.062323-6.7231945,13.3114515-8.2626209,15.2363262-6.0019836,7.5047865-15.42441,2.4429659-13.88471-5.3871111.6735763-3.4254429,9.0917022-17.5399171,12.695163-18.3265402Z"/>
      <path d="M135.9239905,19.8832953c5.0533377-1.5082816,7.6637359.3625871,10.4377196,4.1726639,3.5806062,4.9179756,12.2338692,18.3922301,3.6706304,22.1008499-8.2672095,3.5804136-12.8450239-6.5125701-15.8639454-12.7238534-1.9621061-4.0369373-4.9759481-11.5404807,1.7555953-13.5496604Z"/>
      <path d="M318.7791063,206.3973017c4.0821251-.8927385,15.7802334,5.8445285,19.0307952,8.6975426,6.3102267,5.5384782,1.942261,14.9796338-5.8827546,13.4376637-1.7044218-.3358674-14.7889972-7.8585972-16.1945533-9.1769216-4.1339051-3.8773468-2.707609-11.6998897,3.0465127-12.9582847Z"/>
      <path d="M271.8992252,253.2630065c2.805181-.6117021,5.1223748-.1756651,7.3032604,1.6749434,1.4468313,1.2277207,8.474715,13.262562,9.0993603,15.2751487,2.9951158,9.6501655-7.7539012,14.4157452-14.1171106,5.6758539-3.7282234-5.1207284-13.1362417-20.2598186-2.28551-22.625946Z"/>
      <path d="M98.4714568,206.3918266c7.1050706-1.0801799,11.3065836,6.4531611,7.2397131,11.9890282-1.0332814,1.4065135-14.4537742,9.4027061-16.371784,9.8999003-6.997886,1.8140201-12.1684585-4.9049749-8.5058635-11.3403915,1.1177184-1.9639037,15.1511867-10.1704781,17.6379343-10.548537Z"/>
    </g>
  </g>
</svg>