<?xml version="1.0" encoding="UTF-8"?>
<svg id="Layer_1" xmlns="http://www.w3.org/2000/svg" width="329.4435526" height="300" version="1.1" viewBox="0 0 329.4435526 300">
  <!-- Generator: Adobe Illustrator 29.0.0, SVG Export Plug-In . SVG Version: 2.1.0 Build 186)  -->
  <g id="gHHsCe.tif">
    <g>
      <path d="M0,250.5163854v-3.5486942c1.6638329-1.898251,3.022935-4.3074023,5.950803-4.2186376,8.514595,2.2383015,17.2051953,3.8334565,25.8615346,5.4157557,31.8880168,5.828836,64.3277832,10.492062,95.7410636,17.8370125,3.6720668,1.8722679,6.5659007,5.2408246,7.8358387,9.1995189,1.4774714,4.6056247-.5279257,9.8268516,3.9277044,12.3971036l50.2598207.216396c5.0598602-2.2464111,2.8923964-7.8466465,4.4211495-12.6134997,1.265519-3.9460546,4.1620833-7.330281,7.8358387-9.1995189,39.9945624-9.4895467,81.4629615-13.8272497,121.6194588-23.2572709,4.3584865-.3108002,7.0034204,3.7096632,5.6224315,7.8136802-1.0077516,2.994832-7.4494781,4.5284804-10.328853,5.2891216-35.2935034,9.3234449-75.0520029,10.9281367-110.748556,19.8663656-5.1062385,2.1034897-2.9382514,7.8303143-4.4599282,12.5747291-1.9820989,6.1799586-7.8894023,10.6546323-14.3249692,11.2286007-16.2714776,1.451203-35.0250823-.8827772-51.5361503-.3428428-5.4667725-1.6723585-10.0366316-5.2989939-11.8283387-10.8857579-1.5215712-4.7444469.6462195-10.4712594-4.4599282-12.5747291-36.5418663-8.3969699-76.1308025-11.1656919-112.2932812-20.4511804-3.6552431-.9385617-6.9716111-1.2071023-9.0956387-4.7461526Z"/>
      <path d="M26.265786,109.633227c.177724.6254976,3.5433413,3.1699667,4.4012855,4.8268232,2.8053361,5.4176474.9293905,10.7572747-3.7379813,14.2891104-1.3369734,1.011698-3.5496513,1.1710383-4.2076076,2.5214128,3.1268378.5883895,3.463435,2.9134524,4.0560288,5.5308521,4.1213635,18.2034577,4.6620503,39.4499867,8.0440079,58.0206395-1.9640708,16.9054895-25.0737044,17.6009817-27.7551088.7285876,3.3988364-18.7360124,3.4436878-42.0103573,8.0188097-60.1934188.5788483-2.3005365,1.4984484-4.0177003,4.0765966-4.0859138l-6.3930706-3.8854242c-2.8132039-3.9261171-3.8823027-7.9173365-1.9306246-12.5941286,1.0076703-2.4146729,3.7990272-3.6946314,4.0784896-5.1495389,1.2888882-15.7456273-1.7573125-34.2875338-.008446-49.6901626,1.2496746-11.0061427,13.8385742-5.0975444,21.3045846-7.0893886L169.2642136,0l146.6397463,58.539202-1.4311553,1.3733025-145.8899611,57.9125742L33.7214034,64.5628825l-7.4556173.0019286v45.0684159Z"/>
      <path d="M257.6886575,95.0835809v48.6171101c0,5.2803976-11.4441035,11.1944159-15.6022714,13.5002577-49.3178331,27.3483724-106.4646416,26.9908054-154.0008275-4.3333217-2.4418548-1.6090683-7.8684284-5.1790688-7.8684284-8.4571972v-49.3268489l88.3779394,35.1919838,89.0935878-35.1919838Z"/>
      <path d="M312.3496932,232.0560793c-41.5656016-1.666669-82.3583034,6.9250839-118.5660129,27.3168173l-28.3799528,17.3968496c13.8768297-21.6671532,33.751226-41.060836,55.4309208-54.9377275,18.7636586-12.0103745,41.820609-22.3716136,64.5265086-21.3394726l26.9885363,31.5635332Z"/>
      <path d="M163.9834269,276.7697462l-28.379957-17.3968454c-36.3163179-20.635119-76.9046365-28.5241348-118.5615224-27.6599631l26.9840499-31.2203916c21.6743977-1.0120678,44.2886967,8.6558227,62.3968988,19.9199464,22.5259298,14.0121507,43.2355008,34.0612754,57.5605306,56.3572537Z"/>
    </g>
  </g>
</svg>