<?xml version="1.0" encoding="UTF-8"?>
<svg id="Layer_1" xmlns="http://www.w3.org/2000/svg" width="269.3055973" height="300" version="1.1" viewBox="0 0 269.3055973 300">
  <!-- Generator: Adobe Illustrator 29.0.0, SVG Export Plug-In . SVG Version: 2.1.0 Build 186)  -->
  <g id="d4BvKs.tif">
    <g>
      <path d="M269.3055973,253.1444046v7.2045973c-2.2487673,20.5572604-17.1343493,36.9667646-37.9347015,39.5376966l-192.4174205.1133015c-49.5216993-7.5111451-45.8011354-61.7280041-22.1211991-94.2051991,14.4900104-19.8731487,39.0597614-34.5777463,63.9293766-36.2532481,35.0786823-2.3633015,72.7981759,1.821199,108.1547454.0387704,43.3914915,3.9923303,77.7181009,40.4598966,80.3891991,83.5640815Z"/>
      <path d="M141.7069381.2630398c51.3012288,4.7365463,81.3157603,62.0161673,57.3259105,107.363139-27.1650709,51.3489543-101.9051179,51.3481223-129.0697486,0C45.9751113,62.282725,75.9786791,5.0004264,127.2890105.2630398c3.7986223-.3507197,10.6193053-.3507197,14.4179276,0Z"/>
    </g>
  </g>
</svg>