<?xml version="1.0" encoding="UTF-8"?>
<svg id="Layer_1" xmlns="http://www.w3.org/2000/svg" width="155.3413076" height="300" version="1.1" viewBox="0 0 155.3413076 300">
  <!-- Generator: Adobe Illustrator 29.0.0, SVG Export Plug-In . SVG Version: 2.1.0 Build 186)  -->
  <g id="sXAfaJ.tif">
    <g>
      <path d="M0,37.4996683c1.9581865-9.6360482,15.8547032-9.3383149,15.8394951.8775595-.0142717,9.5868679-13.8709871,10.5186218-15.8394951.8802374v-1.757797Z"/>
      <path d="M71.9399851,0c6.113538,3.0687053,5.1129128,11.7548406-2.0451763,11.7742734-6.7510893.0183279-7.7157403-9.5420627-1.4640913-11.7742734h3.5092676Z"/>
      <path d="M120.2860301,165.0338342c-1.4577997,1.449077-10.4080312,4.0914574-12.4791585,4.1217009-1.239319.0180971-2.2558644-.8842629-3.4562948-.9481993-7.0390797-.3749104-13.871541,1.4846141-20.7077276,2.8841654.3303885-1.597784.72204-2.5056979.4557747-4.2422569-.4225111-2.7555808-2.4687415-4.4895154-3.3825781-6.8865934l25.6759296-5.9139727-3.4600588-23.9681131c-.8386674-.1388435-.7676839.9873782-1.0106537,1.6075265-2.6763139,6.8309352-4.3683145,14.4195813-4.3044593,21.7696859-6.3031486.6409313-14.588109,4.7927745-20.7053562,4.7928153-6.3018101.0000419-14.7350801-4.3450535-21.2883065-4.7944406.3331368-6.0469424-.504784-11.5203024-2.3893315-17.2369273l-2.6359207-6.145268-3.8106852,24.0233197,29.9734923,7.1851342c4.0671241,1.7154236,5.5293698,5.9525375,4.0141542,10.0401214-.4389728.6170779-13.3962749,2.7707367-14.8917657,2.6657213-5.1699857-.3630437-23.3758191-5.1587036-28.7071903-7.0337537-4.2368791-1.4901158-6.3866105-3.6664497-6.1822805-8.4402067.4141747-9.6763525,3.5859793-24.5188757,5.4529278-34.4051659.6252912-3.3111843,1.3911464-10.3931482,2.8187699-12.9963212,3.077243-5.6111406,18.1093967-9.1486125,24.1886072-10.3345783,1.2094224.1207766,3.6050502,3.7628252,4.9707706,4.9885935,10.7390484,9.6385657,26.6793858,9.5848993,37.2658871-.2227304,6.061633,1.7870648,8.3191046,3.7420722,9.8429914,9.8643626,2.6955659,10.829569,5.872599,29.7446446,6.6301141,40.8172365.2110301,3.0846249.4975513,6.4471533-1.8776516,8.8081444Z"/>
      <path d="M48.5852387,172.8928421l13.417379,2.8930795c.4193454.5118193-1.6430551,1.9125551.2867778,1.7607528,11.9330441-.9386633,26.5147288-6.5135531,38.0419865-7.0471062,5.940528-.2749646,8.7820877,2.3069693,11.8508564,6.8594878,12.5962235,18.6864984,22.6003453,40.8778817,34.9286521,59.9294013,6.5798557,13.1223651-10.6948679,24.0035726-19.5070302,11.9250908l-17.9367634-30.6037727c1.9628968-7.3815786,5.6771194-12.9487876.9882987-20.3853583-3.7367387-5.9265482-11.8252901-7.8214534-18.0530591-4.9677551-1.4283565.6545038-2.6288738,2.1544658-3.7579787,2.6805083-2.5121728,1.1704048-26.1465088,5.5182656-29.5112116,5.6389375-14.7151511.527745-13.9473968-18.9621196-10.7479075-28.6832656Z"/>
      <path d="M96.9355902,194.6703716c8.5966213-1.3972683,15.7035305,6.8814383,12.7232765,15.0890605l-26.2813689,73.2783289c-7.3393828,11.6953466-24.3014622,4.7616551-21.116788-8.8501661l25.9425922-72.4473807c1.3974016-3.5075811,4.9333361-6.4523728,8.7322882-7.0698427Z"/>
      <path d="M121.0727027,121.8711556c-1.5128302-7.8388837-.3627728-5.8533579,4.6292359-9.1260835,14.9329153-9.7899137,21.7010636-24.8475715,15.844212-42.4299958l2.6234516,5.2674224c14.7225161-25.734246-14.450791-49.7605179-39.4731584-41.018092l4.3710241-2.3503821,7.5603959-1.7535117.3430083-1.152527c-19.085454-14.3357752-47.4688501-13.1513423-63.4573907,5.2591308l.5208231-1.822095,4.1588441-5.7950057c-14.3905153-.3506253-28.69053,8.0420216-35.3790865,20.8072606,1.9255687.1301443,3.8909971-1.3414099,5.8164893-1.7942245.5918821-.1391919,1.910289-.7748029,1.7787613.3182467C7.211993,55.4139717,1.6773647,85.8868107,20.747874,102.5534756c1.4267166,1.2468785,6.0781749,4.7403605,7.629586,5.2501621.3776938.1241121.9890777.1157616.8626413-.2812929-1.4897578-2.571397-3.1480429-5.5669476-3.8305391-8.4712124-.13927-.5926433-.7729807-1.9139952.3177222-1.782017,1.3006734,4.1405003,4.3365289,7.5313083,7.0288681,10.8567291,1.4296962,1.7658776,2.5847324.3919549,1.1881442,4.6862191-.2475473.7611646.4187205.8801808-.8900942.8879577-1.6613596.0098716-3.6769388-.6992982-5.2815303-1.1919407C2.7989382,104.8406304-6.2835278,75.7558161,11.6806699,55.9396173c1.3642622-1.5049095,3.7219694-2.5730322,4.6188847-4.1617734,1.27399-2.2566686,1.7877976-6.464937,3.0724633-9.2265765,5.9581383-12.8081802,20.9238219-21.2081768,34.7366237-22.0360449,3.6235425-.2171765,8.1224081,1.0284554,11.0749685.546275,1.7337241-.2831332,4.9041437-2.737175,6.9434111-3.5891207,14.505457-6.0599512,32.2880653-4.0361195,44.5433459,5.9777184,1.8843366,1.5396988,4.3997008,5.089137,6.2015612,6.0918376,2.4798418,1.3799842,8.5320888,1.5672589,12.2243608,2.9878419,17.0242347,6.5499886,25.7413169,25.7777258,16.4842942,42.2739712-1.0982059,1.9570304-4.8651494,5.7890059-5.2335776,7.0580802-.7150242,2.462946.320483,8.5075598-.2759754,12.0310215-2.1398354,12.6406592-13.0032423,24.0497647-24.9983276,27.978308Z"/>
      <path d="M61.9970603,266.0132723l-2.4210692,8.1215494-15.7121373.0785135-3.5097806,25.7855118-7.6044141-1.1775817,13.4588138-86.1304569c-4.4349924,1.4323154-8.7030141-3.7948911-4.9075668-6.9620628,3.004875-2.5074659,14.6629002-.6783424,19.2018663-1.2705176.9568881-.1248402,1.7197721-.8589503,2.5264524-.9845869,7.5900037-1.1821069,15.1437132-2.6450751,22.6476312-4.2649721.6632485,1.1911552-.4506067,3.1462564-.8610604,4.4112922-.5219391,1.6086386-2.84693,8.6188792-3.9042857,8.9792175l-27.0740189.1253669-8.2170126,53.2887267h16.376582Z"/>
      <path d="M111.6134767,82.1263917c1.5366092,17.2193134-11.8359351,30.4369014-29.175755,27.7659761-7.7683951-1.1965985-15.834588-8.0141035-18.5542229-15.3967616-2.5601355-6.9496848-.1245772-7.6565435,5.7060231-11.011222,13.8984888-7.9965972,27.5212475-7.918811,42.0239548-1.3579925ZM96.9285473,84.4599594c-3.3739214.9158203-3.0242226,7.2031627,2.0876329,5.6599134,3.2003639-.9661774,1.2448588-6.564488-2.0876329-5.6599134ZM82.3266359,92.4334847c1.7978805-1.8164408.8167709-5.3758487-2.4880254-5.1862096-5.6999347.3270794-1.3010545,9.0144058,2.4880254,5.1862096Z"/>
      <path d="M96.797297,68.5540812c-.2861961.028406-3.2394286.6074249-3.2139593,1.1659868,3.1152883-.0214096,14.9611558,1.7909334,16.8228806,3.6574222.4484621.4496096,2.1523886,5.9610239,1.884465,6.3091973-17.54449-8.8157953-36.4175707-5.5290218-51.4575417,6.4451918-1.5990067-28.2297909,31.1650394-41.9199187,47.3662936-17.281883-.4347737.9573103-1.3625992-.2959151-1.4592136-.2959151-3.1352937,0-6.9239385-.2996456-9.9429248,0Z"/>
      <path d="M108.791946,298.8195076l-7.6054181,1.1804924-3.7692923-25.2328659-7.9306533-.5565946c2.0393929-3.4701306.9161789-9.4853666,6.4351687-8.1997296.4341219-.4163798-1.2292352-5.8395771-1.0504687-7.1926973.4842612-3.6654715,4.4442451-9.1492736,4.5645201-13.3089261l9.3561436,53.3103212Z"/>
      <path d="M39.0436241,62.2179894c7.6393468-1.3366644,9.4213409,9.8636934,3.2165189,11.4618166-8.8075408,2.2684834-10.6733027-10.1570955-3.2165189-11.4618166Z"/>
      <path d="M19.7498336,18.8537827c6.480411-.8489573,7.1593891,9.7728109.4284521,9.7726734-5.8335106-.0001192-6.6718711-8.9547629-.4284521-9.7726734Z"/>
      <path d="M129.4422434,20.3202764c-3.1247349-2.8651739-.7389741-8.4340709,3.6285306-8.3187766,8.6478193.2282869,3.2085298,14.5879057-3.6285306,8.3187766Z"/>
      <path d="M21.471766,118.4750135c5.4579834-1.6437539,6.8253479,6.5597012,2.0743943,7.4092221-4.8540534.8679562-6.3714294-6.1151052-2.0743943-7.4092221Z"/>
    </g>
  </g>
</svg>